<?xml version="1.0" standalone="no"?>
<svg xmlns:xlink="http://www.w3.org/1999/xlink" id="wave" style="transform:rotate(180deg); transition: 0.3s" viewBox="0 0 1440 220" version="1.1" xmlns="http://www.w3.org/2000/svg"><defs><linearGradient id="sw-gradient-0" x1="0" x2="0" y1="1" y2="0"><stop stop-color="rgba(250, 248, 247, 1)" offset="0%"/><stop stop-color="rgba(255, 144, 188, 1)" offset="100%"/></linearGradient></defs><path style="transform:translate(0, 0px); opacity:1" fill="url(#sw-gradient-0)" d="M0,110L60,117.3C120,125,240,139,360,143C480,147,600,139,720,146.7C840,154,960,176,1080,161.3C1200,147,1320,95,1440,88C1560,81,1680,117,1800,139.3C1920,161,2040,169,2160,157.7C2280,147,2400,117,2520,121C2640,125,2760,161,2880,179.7C3000,198,3120,198,3240,194.3C3360,191,3480,183,3600,183.3C3720,183,3840,191,3960,168.7C4080,147,4200,95,4320,80.7C4440,66,4560,88,4680,106.3C4800,125,4920,139,5040,139.3C5160,139,5280,125,5400,110C5520,95,5640,81,5760,95.3C5880,110,6000,154,6120,165C6240,176,6360,154,6480,146.7C6600,139,6720,147,6840,154C6960,161,7080,169,7200,157.7C7320,147,7440,117,7560,113.7C7680,110,7800,132,7920,139.3C8040,147,8160,139,8280,143C8400,147,8520,161,8580,168.7L8640,176L8640,220L8580,220C8520,220,8400,220,8280,220C8160,220,8040,220,7920,220C7800,220,7680,220,7560,220C7440,220,7320,220,7200,220C7080,220,6960,220,6840,220C6720,220,6600,220,6480,220C6360,220,6240,220,6120,220C6000,220,5880,220,5760,220C5640,220,5520,220,5400,220C5280,220,5160,220,5040,220C4920,220,4800,220,4680,220C4560,220,4440,220,4320,220C4200,220,4080,220,3960,220C3840,220,3720,220,3600,220C3480,220,3360,220,3240,220C3120,220,3000,220,2880,220C2760,220,2640,220,2520,220C2400,220,2280,220,2160,220C2040,220,1920,220,1800,220C1680,220,1560,220,1440,220C1320,220,1200,220,1080,220C960,220,840,220,720,220C600,220,480,220,360,220C240,220,120,220,60,220L0,220Z"/></svg>