<?xml version="1.0" standalone="no"?>
<svg xmlns:xlink="http://www.w3.org/1999/xlink" id="wave" style="transform:rotate(180deg); transition: 0.3s" viewBox="0 0 1440 380" version="1.1" xmlns="http://www.w3.org/2000/svg"><defs><linearGradient id="sw-gradient-0" x1="0" x2="0" y1="1" y2="0"><stop stop-color="rgba(196, 172, 221, 1)" offset="0%"/><stop stop-color="rgba(255, 144, 188, 1)" offset="100%"/></linearGradient></defs><path style="transform:translate(0, 0px); opacity:1" fill="url(#sw-gradient-0)" d="M0,304L60,285C120,266,240,228,360,190C480,152,600,114,720,133C840,152,960,228,1080,247C1200,266,1320,228,1440,196.3C1560,165,1680,139,1800,145.7C1920,152,2040,190,2160,215.3C2280,241,2400,253,2520,240.7C2640,228,2760,190,2880,202.7C3000,215,3120,279,3240,291.3C3360,304,3480,266,3600,253.3C3720,241,3840,253,3960,259.7C4080,266,4200,266,4320,259.7C4440,253,4560,241,4680,240.7C4800,241,4920,253,5040,221.7C5160,190,5280,114,5400,88.7C5520,63,5640,89,5760,139.3C5880,190,6000,266,6120,266C6240,266,6360,190,6480,145.7C6600,101,6720,89,6840,88.7C6960,89,7080,101,7200,114C7320,127,7440,139,7560,145.7C7680,152,7800,152,7920,145.7C8040,139,8160,127,8280,120.3C8400,114,8520,114,8580,114L8640,114L8640,380L8580,380C8520,380,8400,380,8280,380C8160,380,8040,380,7920,380C7800,380,7680,380,7560,380C7440,380,7320,380,7200,380C7080,380,6960,380,6840,380C6720,380,6600,380,6480,380C6360,380,6240,380,6120,380C6000,380,5880,380,5760,380C5640,380,5520,380,5400,380C5280,380,5160,380,5040,380C4920,380,4800,380,4680,380C4560,380,4440,380,4320,380C4200,380,4080,380,3960,380C3840,380,3720,380,3600,380C3480,380,3360,380,3240,380C3120,380,3000,380,2880,380C2760,380,2640,380,2520,380C2400,380,2280,380,2160,380C2040,380,1920,380,1800,380C1680,380,1560,380,1440,380C1320,380,1200,380,1080,380C960,380,840,380,720,380C600,380,480,380,360,380C240,380,120,380,60,380L0,380Z"/></svg>